<svg width="22" height="16" viewBox="0 0 22 16" fill="none" xmlns="http://www.w3.org/2000/svg">
<path fill-rule="evenodd" clip-rule="evenodd" d="M1.79159 0.416504C1.50427 0.416504 1.22872 0.530641 1.02555 0.733805C0.822388 0.93697 0.708252 1.21252 0.708252 1.49984C0.708252 1.78716 0.822388 2.06271 1.02555 2.26587C1.22872 2.46903 1.50427 2.58317 1.79159 2.58317H20.2083C20.4956 2.58317 20.7711 2.46903 20.9743 2.26587C21.1775 2.06271 21.2916 1.78716 21.2916 1.49984C21.2916 1.21252 21.1775 0.93697 20.9743 0.733805C20.7711 0.530641 20.4956 0.416504 20.2083 0.416504H1.79159ZM0.708252 7.99984C0.708252 7.71252 0.822388 7.43697 1.02555 7.23381C1.22872 7.03064 1.50427 6.9165 1.79159 6.9165H20.2083C20.4956 6.9165 20.7711 7.03064 20.9743 7.23381C21.1775 7.43697 21.2916 7.71252 21.2916 7.99984C21.2916 8.28716 21.1775 8.56271 20.9743 8.76587C20.7711 8.96903 20.4956 9.08317 20.2083 9.08317H1.79159C1.50427 9.08317 1.22872 8.96903 1.02555 8.76587C0.822388 8.56271 0.708252 8.28716 0.708252 7.99984ZM0.708252 14.5009C0.708252 14.2136 0.822388 13.9381 1.02555 13.7349C1.22872 13.5317 1.50427 13.4176 1.79159 13.4176H20.2083C20.4956 13.4176 20.7711 13.5317 20.9743 13.7349C21.1775 13.9381 21.2916 14.2136 21.2916 14.5009C21.2916 14.7882 21.1775 15.0638 20.9743 15.267C20.7711 15.4701 20.4956 15.5843 20.2083 15.5843H1.79159C1.50427 15.5843 1.22872 15.4701 1.02555 15.267C0.822388 15.0638 0.708252 14.7882 0.708252 14.5009Z" fill="white"/>
</svg>
