<svg width="32" height="32" viewBox="0 0 32 32" fill="none" xmlns="http://www.w3.org/2000/svg">
<path d="M16.0908 31.8926C13.9717 31.8926 11.9795 31.4873 10.1143 30.6768C8.24902 29.876 6.60352 28.7627 5.17773 27.3369C3.75195 25.9209 2.63379 24.2803 1.82324 22.415C1.02246 20.5498 0.62207 18.5527 0.62207 16.4238C0.62207 14.3047 1.02246 12.3125 1.82324 10.4473C2.63379 8.58203 3.74707 6.93652 5.16309 5.51074C6.58887 4.08496 8.23438 2.97168 10.0996 2.1709C11.9746 1.36035 13.9717 0.955078 16.0908 0.955078C18.21 0.955078 20.2021 1.36035 22.0674 2.1709C23.9424 2.97168 25.5879 4.08496 27.0039 5.51074C28.4297 6.93652 29.5479 8.58203 30.3584 10.4473C31.1689 12.3125 31.5742 14.3047 31.5742 16.4238C31.5742 18.5527 31.1689 20.5498 30.3584 22.415C29.5479 24.2803 28.4297 25.9209 27.0039 27.3369C25.5879 28.7627 23.9473 29.876 22.082 30.6768C20.2168 31.4873 18.2197 31.8926 16.0908 31.8926ZM11.4912 22.708C11.999 22.708 12.4189 22.542 12.751 22.21L16.1201 18.8408L19.5039 22.21C19.8262 22.542 20.2363 22.708 20.7344 22.708C21.2129 22.708 21.6133 22.5469 21.9355 22.2246C22.2578 21.8926 22.4189 21.4922 22.4189 21.0234C22.4189 20.5547 22.248 20.1641 21.9062 19.8516L18.5078 16.4385L21.9209 13.0254C22.2529 12.6934 22.4189 12.3027 22.4189 11.8535C22.4189 11.3848 22.2578 10.9893 21.9355 10.667C21.6133 10.3447 21.2178 10.1836 20.749 10.1836C20.2607 10.1836 19.8555 10.3447 19.5332 10.667L16.1201 14.0654L12.7217 10.6816C12.3896 10.3594 11.9795 10.1982 11.4912 10.1982C11.0225 10.1982 10.627 10.3594 10.3047 10.6816C9.98242 10.9941 9.82129 11.3896 9.82129 11.8682C9.82129 12.3174 9.9873 12.708 10.3193 13.04L13.7324 16.4385L10.3193 19.8662C9.9873 20.1885 9.82129 20.5742 9.82129 21.0234C9.82129 21.4922 9.98242 21.8926 10.3047 22.2246C10.627 22.5469 11.0225 22.708 11.4912 22.708Z" fill="#CC0909"/>
</svg>
