<svg width="17" height="17" viewBox="0 0 17 17" fill="none" xmlns="http://www.w3.org/2000/svg">
<path d="M8.36719 16.8302C7.27865 16.8302 6.2526 16.6219 5.28906 16.2052C4.33073 15.7885 3.48438 15.213 2.75 14.4786C2.01562 13.7443 1.4401 12.8979 1.02344 11.9396C0.606771 10.976 0.398438 9.94999 0.398438 8.86145C0.398438 7.77291 0.606771 6.74947 1.02344 5.79114C1.4401 4.8276 2.01302 3.97864 2.74219 3.24426C3.47656 2.50989 4.32292 1.93437 5.28125 1.5177C6.24479 1.10103 7.27083 0.8927 8.35938 0.8927C9.44792 0.8927 10.474 1.10103 11.4375 1.5177C12.401 1.93437 13.25 2.50989 13.9844 3.24426C14.7188 3.97864 15.2943 4.8276 15.7109 5.79114C16.1276 6.74947 16.3359 7.77291 16.3359 8.86145C16.3359 9.94999 16.1276 10.976 15.7109 11.9396C15.2943 12.8979 14.7188 13.7443 13.9844 14.4786C13.25 15.213 12.401 15.7885 11.4375 16.2052C10.4792 16.6219 9.45573 16.8302 8.36719 16.8302ZM8.36719 9.28333C8.42448 9.28333 8.48438 9.2703 8.54688 9.24426C8.60938 9.21822 8.67188 9.17916 8.73438 9.12708L12.7109 5.62708C12.4922 5.50208 12.2292 5.43958 11.9219 5.43958H4.82031C4.4974 5.43958 4.23438 5.50208 4.03125 5.62708L8 9.12708C8.05729 9.17916 8.11719 9.21822 8.17969 9.24426C8.2474 9.2703 8.3099 9.28333 8.36719 9.28333ZM3.67188 11.6349L6.59375 8.69739L3.66406 6.11926C3.64323 6.16093 3.6224 6.23124 3.60156 6.3302C3.58073 6.42395 3.57031 6.53593 3.57031 6.66614V11.0568C3.57031 11.2807 3.60417 11.4734 3.67188 11.6349ZM4.70312 12.2833H12.0312C12.1719 12.2833 12.2969 12.2677 12.4062 12.2365C12.5156 12.2052 12.6094 12.1661 12.6875 12.1193L9.67188 9.11145L9.10156 9.61926C8.98698 9.71822 8.86719 9.79374 8.74219 9.84583C8.61719 9.8927 8.49219 9.91614 8.36719 9.91614C8.24219 9.91614 8.11719 9.8927 7.99219 9.84583C7.86719 9.79374 7.7474 9.71822 7.63281 9.61926L7.0625 9.11145L4.04688 12.1193C4.125 12.1661 4.21875 12.2052 4.32812 12.2365C4.4375 12.2677 4.5625 12.2833 4.70312 12.2833ZM13.0625 11.6271C13.125 11.4708 13.1562 11.2807 13.1562 11.0568V6.66614C13.1562 6.53593 13.1458 6.42395 13.125 6.3302C13.1094 6.23124 13.0911 6.16093 13.0703 6.11926L10.1328 8.69739L13.0625 11.6271Z" fill="#1C1C1C"/>
</svg>
