<svg width="17" height="17" viewBox="0 0 17 17" fill="none" xmlns="http://www.w3.org/2000/svg">
<path d="M8.36719 16.3359C7.27865 16.3359 6.2526 16.1276 5.28906 15.7109C4.33073 15.2943 3.48438 14.7188 2.75 13.9844C2.01562 13.25 1.4401 12.4036 1.02344 11.4453C0.606771 10.4818 0.398438 9.45573 0.398438 8.36719C0.398438 7.27865 0.606771 6.25521 1.02344 5.29688C1.4401 4.33333 2.01302 3.48438 2.74219 2.75C3.47656 2.01562 4.32292 1.4401 5.28125 1.02344C6.24479 0.606771 7.27083 0.398438 8.35938 0.398438C9.44792 0.398438 10.474 0.606771 11.4375 1.02344C12.401 1.4401 13.25 2.01562 13.9844 2.75C14.7188 3.48438 15.2943 4.33333 15.7109 5.29688C16.1276 6.25521 16.3359 7.27865 16.3359 8.36719C16.3359 9.45573 16.1276 10.4818 15.7109 11.4453C15.2943 12.4036 14.7188 13.25 13.9844 13.9844C13.25 14.7188 12.401 15.2943 11.4375 15.7109C10.4792 16.1276 9.45573 16.3359 8.36719 16.3359ZM6.40625 10.2578C6.88021 10.7266 7.375 11.1432 7.89062 11.5078C8.40625 11.8672 8.91927 12.1406 9.42969 12.3281C9.9401 12.5104 10.4245 12.5781 10.8828 12.5312C11.3411 12.4792 11.7474 12.276 12.1016 11.9219C12.1276 11.8958 12.151 11.8698 12.1719 11.8438C12.1927 11.8177 12.2135 11.7917 12.2344 11.7656C12.4167 11.5573 12.5208 11.3307 12.5469 11.0859C12.5729 10.8411 12.4688 10.6302 12.2344 10.4531C12.1094 10.3646 11.9766 10.2734 11.8359 10.1797C11.7005 10.0807 11.5495 9.97135 11.3828 9.85156C11.2161 9.73177 11.0234 9.59635 10.8047 9.44531C10.5651 9.27865 10.3594 9.21094 10.1875 9.24219C10.0156 9.26823 9.83854 9.3724 9.65625 9.55469L9.34375 9.875C9.29688 9.91667 9.23698 9.9375 9.16406 9.9375C9.09635 9.93229 9.03385 9.91406 8.97656 9.88281C8.83594 9.79948 8.65625 9.66927 8.4375 9.49219C8.22396 9.3151 8.0026 9.11198 7.77344 8.88281C7.55469 8.66406 7.35417 8.44271 7.17188 8.21875C6.98958 7.99479 6.85938 7.8151 6.78125 7.67969C6.75521 7.63281 6.73698 7.57812 6.72656 7.51562C6.72135 7.45312 6.74479 7.39323 6.79688 7.33594L7.10938 7.00781C7.29167 6.8151 7.39583 6.63542 7.42188 6.46875C7.45312 6.29688 7.38542 6.09375 7.21875 5.85938L6.22656 4.45312C6.11198 4.29688 5.98177 4.20052 5.83594 4.16406C5.69531 4.1224 5.54167 4.13021 5.375 4.1875C5.20833 4.24479 5.03646 4.34115 4.85938 4.47656C4.83333 4.48698 4.8099 4.5026 4.78906 4.52344C4.77344 4.53906 4.76042 4.55208 4.75 4.5625C4.39583 4.92188 4.19271 5.33073 4.14062 5.78906C4.08854 6.2474 4.15365 6.73177 4.33594 7.24219C4.52344 7.7526 4.79688 8.26562 5.15625 8.78125C5.52083 9.29688 5.9375 9.78906 6.40625 10.2578Z" fill="#1C1C1C"/>
</svg>
