<svg width="79" height="33" viewBox="0 0 79 33" fill="none" xmlns="http://www.w3.org/2000/svg">
<path d="M0.654347 0.114436H6.85815C10.8627 0.114436 13.5674 0.298252 14.9723 0.665885C16.3903 1.03352 17.467 1.63749 18.2022 2.47779C18.9375 3.31809 19.397 4.25687 19.5809 5.29412C19.7647 6.31824 19.8566 8.34022 19.8566 11.3601V22.5269C19.8566 25.3892 19.7187 27.3061 19.443 28.2777C19.1804 29.2362 18.7143 29.9912 18.0447 30.5426C17.3751 31.0809 16.5479 31.4617 15.5632 31.6849C14.5784 31.895 13.0948 32 11.1122 32H0.654347V0.114436ZM8.94578 5.56984V26.5446C10.1406 26.5446 10.8758 26.3083 11.1516 25.8356C11.4273 25.3498 11.5652 24.0434 11.5652 21.9164V9.52846C11.5652 8.08419 11.5192 7.15854 11.4273 6.75152C11.3354 6.3445 11.1253 6.04908 10.7971 5.86526C10.4688 5.66831 9.85173 5.56984 8.94578 5.56984ZM41.7964 0.114436V21.424C41.7964 23.8399 41.7176 25.5402 41.56 26.5249C41.4025 27.4965 40.9364 28.5009 40.1617 29.5382C39.3871 30.5623 38.3629 31.3435 37.0894 31.8818C35.8289 32.407 34.3387 32.6696 32.6187 32.6696C30.7149 32.6696 29.0343 32.3545 27.5769 31.7243C26.1195 31.094 25.0297 30.2734 24.3076 29.2625C23.5854 28.2515 23.1587 27.188 23.0274 26.0719C22.8961 24.9428 22.8305 22.5794 22.8305 18.9819V0.114436H31.1219V24.0237C31.1219 25.4154 31.1941 26.3083 31.3385 26.7022C31.4961 27.0829 31.8046 27.2733 32.2642 27.2733C32.7894 27.2733 33.1242 27.0632 33.2686 26.6431C33.4262 26.2098 33.5049 25.1988 33.5049 23.6101V0.114436H41.7964ZM45.0066 0.114436H58.8322V6.49549H53.298V12.5417H58.4777V18.6077H53.298V25.6189H59.3837V32H45.0066V0.114436ZM78.4874 0.114436V6.49549H73.5638V32H65.2723V6.49549H60.3684V0.114436H78.4874Z" fill="#CC0909"/>
</svg>
