<svg width="164" height="110" viewBox="0 0 164 110" fill="none" xmlns="http://www.w3.org/2000/svg">
<path d="M9.21631 103.528C9.21631 103.528 65.6311 68.0002 156.081 89.5404C156.081 89.5404 95.2838 82.5468 9.21631 103.528Z" fill="#CC0909"/>
<path d="M13.3537 28.2913H22.5756C28.5283 28.2913 32.5488 28.5645 34.6372 29.111C36.745 29.6575 38.3454 30.5553 39.4384 31.8044C40.5314 33.0535 41.2145 34.4489 41.4877 35.9908C41.7609 37.5131 41.8976 40.5188 41.8976 45.0077V61.6071C41.8976 65.8618 41.6926 68.7113 41.2828 70.1556C40.8924 71.5804 40.1996 72.7026 39.2042 73.5223C38.2088 74.3225 36.9792 74.8885 35.5154 75.2203C34.0517 75.5326 31.8462 75.6887 28.8991 75.6887H13.3537V28.2913ZM25.6788 36.4006V67.5793C27.4549 67.5793 28.5478 67.228 28.9577 66.5254C29.3675 65.8033 29.5725 63.8613 29.5725 60.6995V42.2851C29.5725 40.1382 29.5042 38.7622 29.3675 38.1572C29.2309 37.5522 28.9186 37.113 28.4307 36.8398C27.9428 36.547 27.0255 36.4006 25.6788 36.4006ZM74.5108 28.2913V59.9676C74.5108 63.5588 74.3937 66.0863 74.1595 67.5501C73.9252 68.9943 73.2324 70.4874 72.0809 72.0293C70.9294 73.5516 69.407 74.7129 67.5139 75.5131C65.6402 76.2938 63.425 76.6841 60.8683 76.6841C58.0383 76.6841 55.5401 76.2157 53.3737 75.2789C51.2073 74.342 49.5873 73.1222 48.5139 71.6194C47.4404 70.1166 46.8061 68.5357 46.611 66.8767C46.4158 65.1982 46.3182 61.6851 46.3182 56.3374V28.2913H58.6433V63.832C58.6433 65.9009 58.7506 67.228 58.9653 67.8135C59.1995 68.3795 59.6582 68.6625 60.3413 68.6625C61.122 68.6625 61.6197 68.3503 61.8344 67.7257C62.0686 67.0816 62.1857 65.5788 62.1857 63.2172V28.2913H74.5108ZM79.2827 28.2913H99.8343V37.7766H91.6078V46.7643H99.3073V55.7812H91.6078V66.2034H100.654V75.6887H79.2827V28.2913ZM129.052 28.2913V37.7766H121.733V75.6887H109.407V37.7766H102.118V28.2913H129.052Z" fill="#CC0909"/>
</svg>
