<svg width="110" height="74" viewBox="0 0 110 74" fill="none" xmlns="http://www.w3.org/2000/svg">
<path d="M6.19995 69.6459C6.19995 69.6459 44.1517 45.7457 105 60.2363C105 60.2363 64.0999 55.5316 6.19995 69.6459Z" fill="#CC0909"/>
<path d="M8.98345 19.6685H15.1872C19.1918 19.6685 21.8965 19.8523 23.3014 20.22C24.7194 20.5876 25.7961 21.1916 26.5313 22.0319C27.2666 22.8722 27.7261 23.8109 27.91 24.8482C28.0938 25.8723 28.1857 27.8943 28.1857 30.9141V42.081C28.1857 44.9433 28.0478 46.8602 27.7721 47.8318C27.5095 48.7903 27.0434 49.5452 26.3738 50.0967C25.7042 50.635 24.877 51.0158 23.8923 51.239C22.9075 51.449 21.4239 51.5541 19.4413 51.5541H8.98345V19.6685ZM17.2749 25.1239V46.0987C18.4697 46.0987 19.2049 45.8623 19.4807 45.3897C19.7564 44.9039 19.8943 43.5975 19.8943 41.4704V29.0825C19.8943 27.6383 19.8483 26.7126 19.7564 26.3056C19.6645 25.8986 19.4544 25.6032 19.1262 25.4193C18.7979 25.2224 18.1808 25.1239 17.2749 25.1239ZM50.1255 19.6685V40.9781C50.1255 43.3939 50.0467 45.0942 49.8891 46.079C49.7316 47.0506 49.2655 48.055 48.4908 49.0923C47.7162 50.1164 46.6921 50.8976 45.4185 51.4359C44.158 51.9611 42.6678 52.2237 40.9478 52.2237C39.044 52.2237 37.3634 51.9086 35.906 51.2784C34.4486 50.6481 33.3588 49.8275 32.6367 48.8165C31.9145 47.8055 31.4878 46.742 31.3565 45.626C31.2252 44.4968 31.1596 42.1335 31.1596 38.5359V19.6685H39.451V43.5778C39.451 44.9695 39.5232 45.8623 39.6676 46.2562C39.8252 46.637 40.1337 46.8274 40.5933 46.8274C41.1185 46.8274 41.4533 46.6173 41.5977 46.1971C41.7553 45.7639 41.834 44.7529 41.834 43.1642V19.6685H50.1255ZM53.3357 19.6685H67.1613V26.0496H61.6271V32.0958H66.8068V38.1617H61.6271V45.173H67.7128V51.5541H53.3357V19.6685ZM86.8165 19.6685V26.0496H81.8929V51.5541H73.6014V26.0496H68.6975V19.6685H86.8165Z" fill="#CC0909"/>
</svg>
