<svg width="31" height="30" viewBox="0 0 31 30" fill="none" xmlns="http://www.w3.org/2000/svg">
<path d="M17.5646 15.3002C17.5571 15.6924 17.4333 16.0736 17.209 16.3954C16.9846 16.7172 16.6698 16.9651 16.3044 17.1078C15.939 17.2504 15.5394 17.2814 15.1564 17.1967C14.7733 17.112 14.4241 16.9155 14.1528 16.6321C13.8816 16.3487 13.7006 15.9912 13.6328 15.6048C13.565 15.2184 13.6135 14.8206 13.772 14.4618C13.9306 14.103 14.1921 13.7993 14.5234 13.5893C14.8548 13.3793 15.241 13.2724 15.6331 13.2821C16.1543 13.3014 16.6474 13.5229 17.0079 13.8996C17.3685 14.2764 17.5681 14.7787 17.5646 15.3002Z" fill="white"/>
<path d="M18.9955 9.09839H12.2789C11.6142 9.09839 10.9769 9.3624 10.5069 9.83235C10.037 10.3023 9.77295 10.9397 9.77295 11.6043V18.472C9.77295 18.8011 9.83777 19.1269 9.9637 19.431C10.0896 19.735 10.2742 20.0113 10.5069 20.2439C10.7396 20.4766 11.0159 20.6612 11.3199 20.7872C11.6239 20.9131 11.9498 20.9779 12.2789 20.9779H18.9955C19.3246 20.9779 19.6505 20.9131 19.9545 20.7872C20.2585 20.6612 20.5348 20.4766 20.7675 20.2439C21.0002 20.0113 21.1847 19.735 21.3107 19.431C21.4366 19.1269 21.5014 18.8011 21.5014 18.472V11.6167C21.5027 11.2866 21.4389 10.9596 21.3136 10.6543C21.1883 10.349 21.0039 10.0714 20.7711 9.83745C20.5383 9.60351 20.2617 9.41781 19.957 9.29098C19.6523 9.16416 19.3256 9.09871 18.9955 9.09839ZM15.6366 18.6602C14.9717 18.6752 14.3174 18.4918 13.7572 18.1333C13.197 17.7748 12.7563 17.2575 12.4914 16.6475C12.2265 16.0375 12.1494 15.3623 12.2698 14.7083C12.3903 14.0542 12.7029 13.4509 13.1678 12.9753C13.6327 12.4996 14.2287 12.1733 14.8799 12.038C15.531 11.9026 16.2077 11.9643 16.8237 12.2152C17.4396 12.4662 17.9668 12.8949 18.3379 13.4468C18.7091 13.9986 18.9074 14.6486 18.9076 15.3136C18.913 15.7483 18.8326 16.1797 18.6711 16.5832C18.5095 16.9868 18.27 17.3545 17.9662 17.6653C17.6623 17.9762 17.3002 18.224 16.9004 18.3948C16.5007 18.5655 16.0712 18.6557 15.6366 18.6602ZM19.2716 11.9683C19.1899 11.9683 19.109 11.952 19.0337 11.9204C18.9584 11.8888 18.8901 11.8424 18.8329 11.7841C18.7758 11.7257 18.7308 11.6566 18.7007 11.5806C18.6705 11.5047 18.6559 11.4235 18.6575 11.3418C18.6575 11.1757 18.7235 11.0163 18.841 10.8988C18.9585 10.7813 19.1178 10.7153 19.284 10.7153C19.4501 10.7153 19.6095 10.7813 19.727 10.8988C19.8445 11.0163 19.9105 11.1757 19.9105 11.3418C19.9129 11.4303 19.8962 11.5182 19.8616 11.5996C19.8269 11.681 19.775 11.7539 19.7095 11.8134C19.644 11.8729 19.5665 11.9176 19.4821 11.9443C19.3978 11.971 19.3087 11.9792 19.2209 11.9683H19.2716Z" fill="white"/>
<path d="M15.632 2.61856C12.3483 2.60215 9.19268 3.89082 6.85919 6.20109C4.5257 8.51136 3.20554 11.654 3.18912 14.9376C3.1727 18.2212 4.46137 21.3769 6.77164 23.7104C9.08191 26.0439 12.2245 27.3641 15.5082 27.3805C17.1341 27.3886 18.7456 27.0764 20.2509 26.4617C21.7561 25.847 23.1255 24.9419 24.281 23.7979C25.4364 22.654 26.3552 21.2937 26.9849 19.7947C27.6146 18.2957 27.9429 16.6873 27.951 15.0614C27.9592 13.4355 27.647 11.824 27.0323 10.3187C26.4176 8.81349 25.5124 7.44406 24.3685 6.28863C23.2246 5.13321 21.8643 4.21441 20.3653 3.5847C18.8662 2.95499 17.2579 2.62669 15.632 2.61856ZM23.1509 18.3448C23.1544 18.9003 23.0475 19.4509 22.8366 19.9648C22.6257 20.4786 22.3148 20.9455 21.9221 21.3383C21.5294 21.7311 21.0626 22.0421 20.5488 22.2532C20.0351 22.4643 19.4845 22.5713 18.929 22.568H12.3374C11.782 22.5714 11.2313 22.4646 10.7175 22.2537C10.2036 22.0427 9.73677 21.7319 9.34394 21.3392C8.95111 20.9465 8.64014 20.4797 8.42906 19.9659C8.21797 19.4521 8.11098 18.9015 8.11426 18.3461V11.7532C8.11081 11.1978 8.21765 10.6472 8.42858 10.1333C8.63952 9.61946 8.95035 9.15259 9.34306 8.75976C9.73577 8.36694 10.2026 8.05597 10.7163 7.84488C11.2301 7.6338 11.7807 7.5268 12.3362 7.53009H18.929C19.4844 7.5268 20.0348 7.63376 20.5486 7.84477C21.0623 8.05577 21.529 8.36663 21.9217 8.75933C22.3144 9.15203 22.6252 9.61875 22.8363 10.1325C23.0473 10.6462 23.1542 11.1966 23.1509 11.752V18.3448Z" fill="white"/>
</svg>
