<svg width="17" height="17" viewBox="0 0 17 17" fill="none" xmlns="http://www.w3.org/2000/svg">
<path d="M8.36719 16.3245C7.27865 16.3245 6.2526 16.1161 5.28906 15.6995C4.33073 15.2828 3.48438 14.7073 2.75 13.9729C2.01562 13.2385 1.4401 12.3922 1.02344 11.4338C0.606771 10.4703 0.398438 9.44425 0.398438 8.35571C0.398438 7.26717 0.606771 6.24373 1.02344 5.2854C1.4401 4.32186 2.01302 3.4729 2.74219 2.73853C3.47656 2.00415 4.32292 1.42863 5.28125 1.01196C6.24479 0.595296 7.27083 0.386963 8.35938 0.386963C9.44792 0.386963 10.474 0.595296 11.4375 1.01196C12.401 1.42863 13.25 2.00415 13.9844 2.73853C14.7188 3.4729 15.2943 4.32186 15.7109 5.2854C16.1276 6.24373 16.3359 7.26717 16.3359 8.35571C16.3359 9.44425 16.1276 10.4703 15.7109 11.4338C15.2943 12.3922 14.7188 13.2385 13.9844 13.9729C13.25 14.7073 12.401 15.2828 11.4375 15.6995C10.4792 16.1161 9.45573 16.3245 8.36719 16.3245ZM6.6875 4.99634C6.6875 5.37655 6.80208 5.71769 7.03125 6.01978C7.26562 6.31665 7.55729 6.51717 7.90625 6.62134V9.33228C7.90625 9.75415 7.92708 10.1161 7.96875 10.4182C8.01562 10.7151 8.07292 10.9417 8.14062 11.0979C8.21354 11.2542 8.28906 11.3323 8.36719 11.3323C8.44531 11.3323 8.51823 11.2568 8.58594 11.1057C8.65885 10.9495 8.71615 10.7229 8.75781 10.426C8.79948 10.1239 8.82031 9.75936 8.82031 9.33228V6.62134C9.17448 6.51717 9.46615 6.31665 9.69531 6.01978C9.92448 5.71769 10.0391 5.37655 10.0391 4.99634C10.0391 4.5328 9.8776 4.13696 9.55469 3.80884C9.23177 3.48071 8.83594 3.31665 8.36719 3.31665C7.89844 3.31665 7.5 3.48071 7.17188 3.80884C6.84896 4.13696 6.6875 4.5328 6.6875 4.99634ZM7.89844 5.07446C7.75781 5.07446 7.63281 5.02238 7.52344 4.91821C7.41406 4.80884 7.35938 4.67863 7.35938 4.52759C7.35938 4.37655 7.41406 4.24894 7.52344 4.14478C7.63281 4.04061 7.75781 3.98853 7.89844 3.98853C8.04948 3.98853 8.17708 4.04061 8.28125 4.14478C8.39062 4.24894 8.44531 4.37655 8.44531 4.52759C8.44531 4.67863 8.39062 4.80884 8.28125 4.91821C8.17708 5.02238 8.04948 5.07446 7.89844 5.07446ZM8.36719 12.9182C9.23698 12.9182 9.98177 12.8271 10.6016 12.6448C11.2214 12.4625 11.6953 12.2281 12.0234 11.9417C12.3568 11.65 12.5234 11.3375 12.5234 11.0042C12.5234 10.7021 12.4193 10.4338 12.2109 10.1995C12.0026 9.95988 11.737 9.75936 11.4141 9.5979C11.0911 9.43644 10.75 9.31405 10.3906 9.23071C10.0312 9.14217 9.70052 9.1005 9.39844 9.10571V9.8479C9.67969 9.8479 9.98698 9.89217 10.3203 9.98071C10.6536 10.0693 10.9401 10.1943 11.1797 10.3557C11.4193 10.5172 11.5391 10.6995 11.5391 10.9026C11.5391 11.137 11.4036 11.3453 11.1328 11.5276C10.862 11.7099 10.487 11.8557 10.0078 11.9651C9.53385 12.0693 8.98698 12.1213 8.36719 12.1213C7.7474 12.1213 7.19792 12.0693 6.71875 11.9651C6.23958 11.8609 5.86458 11.7177 5.59375 11.5354C5.32292 11.3479 5.1875 11.137 5.1875 10.9026C5.1875 10.6995 5.30729 10.5172 5.54688 10.3557C5.79167 10.1943 6.08073 10.0693 6.41406 9.98071C6.7474 9.89217 7.05469 9.8479 7.33594 9.8479V9.10571C7.03385 9.1005 6.70312 9.14217 6.34375 9.23071C5.98438 9.31405 5.64323 9.43644 5.32031 9.5979C4.9974 9.75936 4.73177 9.95988 4.52344 10.1995C4.3151 10.4338 4.21094 10.7021 4.21094 11.0042C4.21094 11.3375 4.375 11.65 4.70312 11.9417C5.03125 12.2281 5.50521 12.4625 6.125 12.6448C6.74479 12.8271 7.49219 12.9182 8.36719 12.9182Z" fill="white"/>
</svg>
