<svg width="17" height="17" viewBox="0 0 17 17" fill="none" xmlns="http://www.w3.org/2000/svg">
<path d="M8.36719 16.8301C7.27865 16.8301 6.2526 16.6217 5.28906 16.2051C4.33073 15.7884 3.48438 15.2129 2.75 14.4785C2.01562 13.7441 1.4401 12.8978 1.02344 11.9395C0.606771 10.9759 0.398438 9.94987 0.398438 8.86133C0.398438 7.77279 0.606771 6.74935 1.02344 5.79102C1.4401 4.82747 2.01302 3.97852 2.74219 3.24414C3.47656 2.50977 4.32292 1.93424 5.28125 1.51758C6.24479 1.10091 7.27083 0.892578 8.35938 0.892578C9.44792 0.892578 10.474 1.10091 11.4375 1.51758C12.401 1.93424 13.25 2.50977 13.9844 3.24414C14.7188 3.97852 15.2943 4.82747 15.7109 5.79102C16.1276 6.74935 16.3359 7.77279 16.3359 8.86133C16.3359 9.94987 16.1276 10.9759 15.7109 11.9395C15.2943 12.8978 14.7188 13.7441 13.9844 14.4785C13.25 15.2129 12.401 15.7884 11.4375 16.2051C10.4792 16.6217 9.45573 16.8301 8.36719 16.8301ZM8.36719 9.2832C8.42448 9.2832 8.48438 9.27018 8.54688 9.24414C8.60938 9.2181 8.67188 9.17904 8.73438 9.12695L12.7109 5.62695C12.4922 5.50195 12.2292 5.43945 11.9219 5.43945H4.82031C4.4974 5.43945 4.23438 5.50195 4.03125 5.62695L8 9.12695C8.05729 9.17904 8.11719 9.2181 8.17969 9.24414C8.2474 9.27018 8.3099 9.2832 8.36719 9.2832ZM3.67188 11.6348L6.59375 8.69727L3.66406 6.11914C3.64323 6.16081 3.6224 6.23112 3.60156 6.33008C3.58073 6.42383 3.57031 6.53581 3.57031 6.66602V11.0566C3.57031 11.2806 3.60417 11.4733 3.67188 11.6348ZM4.70312 12.2832H12.0312C12.1719 12.2832 12.2969 12.2676 12.4062 12.2363C12.5156 12.2051 12.6094 12.166 12.6875 12.1191L9.67188 9.11133L9.10156 9.61914C8.98698 9.7181 8.86719 9.79362 8.74219 9.8457C8.61719 9.89258 8.49219 9.91602 8.36719 9.91602C8.24219 9.91602 8.11719 9.89258 7.99219 9.8457C7.86719 9.79362 7.7474 9.7181 7.63281 9.61914L7.0625 9.11133L4.04688 12.1191C4.125 12.166 4.21875 12.2051 4.32812 12.2363C4.4375 12.2676 4.5625 12.2832 4.70312 12.2832ZM13.0625 11.627C13.125 11.4707 13.1562 11.2806 13.1562 11.0566V6.66602C13.1562 6.53581 13.1458 6.42383 13.125 6.33008C13.1094 6.23112 13.0911 6.16081 13.0703 6.11914L10.1328 8.69727L13.0625 11.627Z" fill="white"/>
</svg>
