<svg width="41" height="41" viewBox="0 0 41 41" fill="none" xmlns="http://www.w3.org/2000/svg">
<path d="M20.418 40.8203C17.6966 40.8203 15.1315 40.2995 12.7227 39.2578C10.3268 38.2161 8.21094 36.7773 6.375 34.9414C4.53906 33.1055 3.10026 30.9896 2.05859 28.5938C1.01693 26.1849 0.496094 23.6198 0.496094 20.8984C0.496094 18.1771 1.01693 15.6185 2.05859 13.2227C3.10026 10.8138 4.53255 8.69141 6.35547 6.85547C8.19141 5.01953 10.3073 3.58073 12.7031 2.53906C15.112 1.4974 17.6771 0.976562 20.3984 0.976562C23.1198 0.976562 25.6849 1.4974 28.0938 2.53906C30.5026 3.58073 32.625 5.01953 34.4609 6.85547C36.2969 8.69141 37.7357 10.8138 38.7773 13.2227C39.819 15.6185 40.3398 18.1771 40.3398 20.8984C40.3398 23.6198 39.819 26.1849 38.7773 28.5938C37.7357 30.9896 36.2969 33.1055 34.4609 34.9414C32.625 36.7773 30.5026 38.2161 28.0938 39.2578C25.6979 40.2995 23.1393 40.8203 20.418 40.8203ZM30.7695 20.8594C30.7695 20.4688 30.5742 20.0781 30.1836 19.6875L23.4062 12.8711C23.1328 12.5977 22.7747 12.4609 22.332 12.4609C21.9154 12.4609 21.5638 12.6042 21.2773 12.8906C21.0039 13.1641 20.8672 13.5091 20.8672 13.9258C20.8672 14.3164 21.0234 14.6745 21.3359 15L23.8359 17.4805L26.2578 19.5117L22 19.3359H11.5508C11.1081 19.3359 10.7435 19.4792 10.457 19.7656C10.1706 20.0521 10.0273 20.4167 10.0273 20.8594C10.0273 21.3021 10.1706 21.6667 10.457 21.9531C10.7435 22.2396 11.1081 22.3828 11.5508 22.3828H22L26.2773 22.207L23.8359 24.2578L21.3359 26.7188C21.0234 27.0182 20.8672 27.3828 20.8672 27.8125C20.8672 28.2292 21.0039 28.5807 21.2773 28.8672C21.5638 29.1536 21.9154 29.2969 22.332 29.2969C22.7617 29.2969 23.1198 29.1536 23.4062 28.8672L30.1836 22.0508C30.5742 21.6602 30.7695 21.263 30.7695 20.8594Z" fill="white"/>
</svg>
