<svg width="41" height="41" viewBox="0 0 41 41" fill="none" xmlns="http://www.w3.org/2000/svg">
<path d="M20.418 40.8203C17.6966 40.8203 15.1315 40.2995 12.7227 39.2578C10.3268 38.2161 8.21094 36.7773 6.375 34.9414C4.53906 33.1055 3.10026 30.9896 2.05859 28.5938C1.01693 26.1849 0.496094 23.6198 0.496094 20.8984C0.496094 18.1771 1.01693 15.6185 2.05859 13.2227C3.10026 10.8138 4.53255 8.69141 6.35547 6.85547C8.19141 5.01953 10.3073 3.58073 12.7031 2.53906C15.112 1.4974 17.6771 0.976562 20.3984 0.976562C23.1198 0.976562 25.6849 1.4974 28.0938 2.53906C30.5026 3.58073 32.625 5.01953 34.4609 6.85547C36.2969 8.69141 37.7357 10.8138 38.7773 13.2227C39.819 15.6185 40.3398 18.1771 40.3398 20.8984C40.3398 23.6198 39.819 26.1849 38.7773 28.5938C37.7357 30.9896 36.2969 33.1055 34.4609 34.9414C32.625 36.7773 30.5026 38.2161 28.0938 39.2578C25.6979 40.2995 23.1393 40.8203 20.418 40.8203ZM10.0859 20.8594C10.0859 21.263 10.2812 21.6602 10.6719 22.0508L17.4688 28.8672C17.7422 29.1536 18.0938 29.2969 18.5234 29.2969C18.9401 29.2969 19.2852 29.1536 19.5586 28.8672C19.8451 28.5807 19.9883 28.2292 19.9883 27.8125C19.9883 27.3828 19.832 27.0182 19.5195 26.7188L17.0195 24.2578L14.5781 22.207L18.8555 22.3828H29.3047C29.7474 22.3828 30.112 22.2396 30.3984 21.9531C30.6849 21.6667 30.8281 21.3021 30.8281 20.8594C30.8281 20.4167 30.6849 20.0521 30.3984 19.7656C30.112 19.4792 29.7474 19.3359 29.3047 19.3359H18.8555L14.5977 19.5117L17.0195 17.4805L19.5195 15C19.832 14.6745 19.9883 14.3164 19.9883 13.9258C19.9883 13.5091 19.8451 13.1641 19.5586 12.8906C19.2852 12.6042 18.9401 12.4609 18.5234 12.4609C18.0807 12.4609 17.7292 12.5977 17.4688 12.8711L10.6719 19.6875C10.2812 20.0781 10.0859 20.4688 10.0859 20.8594Z" fill="white"/>
</svg>
