<svg width="27" height="26" viewBox="0 0 27 26" fill="none" xmlns="http://www.w3.org/2000/svg">
<path fill-rule="evenodd" clip-rule="evenodd" d="M13.4285 26C20.6081 26 26.4285 20.1796 26.4285 13C26.4285 5.82036 20.6081 0 13.4285 0C6.24883 0 0.428467 5.82036 0.428467 13C0.428467 20.1796 6.24883 26 13.4285 26ZM19.1425 8.30544C19.2428 7.16664 18.0401 7.63568 18.0401 7.63568C17.1522 8.00332 16.2365 8.37668 15.3109 8.7542C12.4405 9.92498 9.47543 11.1345 6.94953 12.325C5.57985 12.8274 6.38169 13.3297 6.38169 13.3297L8.55295 13.9997C9.55525 14.3013 10.0895 13.9662 10.0895 13.9662L14.7664 10.7843C16.4367 9.64548 16.0357 10.5833 15.6348 10.9853L12.1274 14.3346C11.5929 14.8036 11.8601 15.2056 12.0939 15.4066C12.7569 15.9913 14.3871 17.0612 15.0987 17.5282C15.2838 17.6496 15.4068 17.7304 15.4346 17.7512C15.6015 17.8851 16.5035 18.4881 17.1049 18.3542C17.7062 18.22 17.7731 17.4496 17.7731 17.4496L18.5746 12.1909C18.6948 11.278 18.8328 10.4005 18.9431 9.69956C19.0471 9.0376 19.1264 8.53346 19.1425 8.30544Z" fill="white"/>
</svg>
