<svg width="27" height="26" viewBox="0 0 27 26" fill="none" xmlns="http://www.w3.org/2000/svg">
<path fill-rule="evenodd" clip-rule="evenodd" d="M13.4285 26C20.6082 26 26.4285 20.1797 26.4285 13C26.4285 5.82031 20.6082 0 13.4285 0C6.24877 0 0.428467 5.82031 0.428467 13C0.428467 20.1797 6.24877 26 13.4285 26ZM18.5667 7.53813C17.2289 6.19866 15.4497 5.4607 13.5541 5.46C9.64848 5.46 6.46946 8.63855 6.46806 12.5456C6.46759 13.7945 6.79386 15.0136 7.41383 16.088L6.40847 19.76L10.1649 18.7747C11.1998 19.3394 12.3652 19.6368 13.551 19.6373H13.5539C17.4592 19.6373 20.6382 16.4583 20.6399 12.5515C20.6411 10.6578 19.9048 8.87759 18.5667 7.53813ZM16.7847 14.0293C16.6076 13.9406 15.7372 13.5124 15.5748 13.4533C15.4126 13.3942 15.2944 13.3646 15.1764 13.542C15.0584 13.7193 14.7191 14.1179 14.6158 14.2362C14.5125 14.3544 14.4091 14.3691 14.2323 14.2804C14.2033 14.2659 14.1638 14.2488 14.1151 14.2276C13.8658 14.1195 13.374 13.9062 12.8084 13.4015C12.282 12.9319 11.9267 12.3522 11.8234 12.1751C11.72 11.9978 11.8122 11.902 11.9009 11.8138C11.9541 11.7608 12.0151 11.6864 12.0761 11.6121C12.1065 11.575 12.137 11.538 12.1664 11.5036C12.2414 11.4159 12.2741 11.3494 12.3183 11.2593C12.3262 11.2431 12.3345 11.2262 12.3435 11.2083C12.4026 11.09 12.3731 10.9867 12.3289 10.898C12.2993 10.8388 12.1315 10.4303 11.9794 10.06C11.9037 9.87584 11.8319 9.70109 11.7829 9.58339C11.656 9.27862 11.5274 9.2794 11.4242 9.28002C11.4105 9.28013 11.3972 9.2802 11.3845 9.27956C11.2814 9.27435 11.1632 9.27342 11.0452 9.27342C10.9272 9.27342 10.7355 9.31762 10.573 9.49496C10.5626 9.5064 10.5509 9.51888 10.5381 9.53246C10.3537 9.72943 9.95331 10.1568 9.95331 10.972C9.95331 11.8414 10.5846 12.6814 10.6757 12.8027L10.6764 12.8035C10.6821 12.8112 10.6924 12.826 10.7071 12.8471C10.9185 13.1503 12.0405 14.76 13.701 15.477C14.1235 15.6596 14.4531 15.7683 14.7103 15.8499C15.1345 15.9847 15.5204 15.9658 15.8257 15.9201C16.1659 15.8693 16.8731 15.4919 17.0207 15.0784C17.1682 14.6649 17.1682 14.3102 17.124 14.2364C17.0883 14.1767 17.0046 14.1362 16.8806 14.0763C16.8509 14.0619 16.8189 14.0464 16.7847 14.0293Z" fill="white"/>
</svg>
